<svg xmlns="http://www.w3.org/2000/svg"><g id="t" style="font-style:normal;font-weight:400;font-size:72px;line-height:1;font-family:'Brandmark Script 1 Shadow';font-variant-ligatures:normal;text-align:center;text-anchor:middle" fill="#FFF"><g aria-label="S" transform="matrix(4 0 0 4 -1536.415 461.362)"><path class="c1" d="M456.121-8.133c.216 0 .216.144.144.504 0 .288 0 .504.072.72.288.36 0 .144-.072.36-.144.144.072.648.144.792a.547.547 0 0 1 .144.36c.072 0 .144.072.144.144.072.144.072.36.288.288-.144-.072-.432-.648-.36-.72.144 0 .288.36.36.504.072.072.072.144.144.216 0 0 .072.144.144.144.144.072 0-.216-.072-.216-.072-.144-.144-.288-.144-.504-.216-.144-.288-.432-.288-.792.144.072.144.216.288.216-.144.36.216.432.144.72 0 .216.216 0 .216.216 0 0 .432.144.36.288h-.216c.072.072.216.072.216.144 0 0-.288-.072-.36-.072s0 .072 0 .072v.072h-.072v.072c.072.072.216.144.072.216-.144.072-.144 0-.216-.072l-.144-.144c-.144.144.072.216.072.288.072.144.144.288.216.36.072.072.144.36.216.432.144.072.216-.072.288.072l-.072.072.144-.072a.994.994 0 0 0 .288.216c.072 0 .144.072.216.072.144.072.288.072.36.144v.072c.288.072.504.288.792.216-.144.288.36.072.433.216-.145.288-.577.072-.577-.144-.072 0-.072.072 0 .072-.288.072-.576-.144-.792-.216-.216.072-.864-.072-.648 0 .072.072.576.504.72.433.144 0 .36.071.505.071.143.072.215 0 .287.072l.217.216c.07 0-.145.288-.145.36.288-.216.36.073.36.288 2.449 1.728 7.13 2.016 8.785 2.016 4.32 0 9.577-1.007 12.745-3.816.144-.072.216-.144.36-.288.145-.072.072-.144.145-.216.143-.072.143.072.215-.144.073-.072.432-.36.504-.432.288-.216.432-.504.649-.72.216-.216.431-.432.575-.72.072-.072.144-.216.217-.288.143-.144.143-.072.216-.288.576-1.08 1.223-2.808 1.368-4.609.072-2.736-1.154-5.319-2.523-6.687s-3.6-2.808-5.905-4.176c-.216-.072-.432-.144-.575-.288-.217-.072-.217-.216-.433-.216-.504-.073-.864-.504-1.368-.648-.216 0-.288-.217-.504-.288-.143-.073-2.016-1.224-2.88-1.728-1.297-.793-2.232-1.803-2.016-3.315.216-1.656.938-2.023 2.163-2.887 1.511-1.08 3.456-1.512 5.471-1.873.36-.071.721-.071 1.01-.144h.215c2.376-.287 4.536.073 6.049 1.08.36.217.792.577 1.008.505.431-.36.36-1.44.36-1.944-.072-1.009-.793-3.745-2.089-4.825-.36-.288-.792-.576-1.224-.72-1.728-.72-4.824-.288-6.84.288-3.025.864-4.033 1.8-4.609 2.016-.216.144-.576.216-.72.36 0 .072-.36.288-.432.36-2.016 1.585-3.817 3.673-4.32 6.481-.504 2.88 1.14 4.597 2.795 5.821 2.881 1.944 5.057 2.849 8.307 4.704.144.144.777.343.92.488.145.215.36.36.649.431 0 .144.215.288.36.36.144.145.288.216.432.289.072.144.215.36.431.288-.071.143 0 .216.145.216.072 0 0 .071.072.144.071.144.72.792.792.936.071.144.216.071.288.144.071.144 0 .432.288.72.504 1.944.218 3.605-.43 5.26-1.296 3.313-6.12 6.193-11.377 6.337-4.32.144-7.056-.864-7.128-.792-.073.144.36.288.215.36-.215-.072-.36-.144-.576-.144-.071-.072-.216.072-.216 0-.072-.144-.36-.072-.576-.072-.143 0-.216-.072-.288-.216-.216-.144.504-.144.288-.216-.864-.288-1.228-.715-1.949-1.22-.143 0-.431.145-.504.145-.071-.073.145-.144.073-.144 0-.073-.144 0-.073-.073.145-.144.288.073.36-.144-.215-.071-.431-.215-.648-.215-.143 0-.216.072-.288 0 0-.072.505-.145.505-.145-.072-.071-.217-.144-.288-.215-.072-.144.143-.36.143-.505.073-.287-.143 0-.215-.072 0-.072.215-.215.215-.288-.072-.071-.143.073-.143 0l-.145-.144c0-.071-.072-.215 0-.144.073.073.073.073.073 0 0-.144-.073-.071-.145-.144-.071-.072-.143-.144-.143-.216.072-.144.143-.216.072-.36v-.288c-.072-.144-.145-.144-.145-.36.073-.144 0-.288 0-.432.288-2.16 1.386-3.506 3.042-4.586 1.152-.648 2.16-.936 3.456-1.009 1.008 0 1.945.217 2.52.792.217.289.217.577.432.433s.78-1.107.636-1.683c-.145-.504-1.728-.864-2.736-.936-1.368-.072-2.737.144-4.177.72-.432.216-.575.288-.863.648-.145.072-.073.144-.217.216-.071 0-.216.072-.36.144a4.805 4.805 0 0 0-1.44 1.296c-.504.72-1.08 1.44-1.368 2.376-.072.217-.216.288-.216.433 0 .072-.288.647-.144.647.072-.071.072-.144.072-.144.072 0 .072.073.072.144.072 0 .216.217 0 .217-.144 0-.216-.144-.216.144 0 .144-.216.431-.072.504.072 0 0 0 0 .072 0 .144.072.072.072.216 0 .072 0 .36.144.072 0-.072 0-.288.072-.36.288-.144 0 .36 0 .504-.144-.144-.072.144-.216.144-.288 0-.216.216-.072.288zm4.896 5.976c-.36.144-.72-.072-1.08-.144.216-.072 1.224-.072 1.08.144zm-1.368-1.296c-.144.216-.431-.072-.576-.144.216-.288.36.144.576.144zm-3.24-6.696c-.072 0 0-.073.072-.216.072.072 0 .072-.072.216zm.144 4.032c-.216 0-.216-.288-.216-.432.216 0 .36.072.216.432zm.288-3.744c0 .071.072.216-.072.36-.144-.072 0-.216.072-.36zm-.288 1.728c.072.072.216.288 0 .432-.072-.072 0-.288 0-.432z" stroke-width="0" stroke-miterlimit="2" fill="#4198C2" stroke="#4198C2"/><radialGradient id="a" cx="121.809" cy="113.974" r="32.283" gradientTransform="matrix(1 0 0 -1 0 201.281)" gradientUnits="userSpaceOnUse" transform="translate(370.894 -118.992)" fill="#FFF"><stop offset=".596" style="stop-color:#000;stop-opacity:0"/><stop offset=".767" style="stop-color:#000"/></radialGradient><path class="highlight" fill="url(&quot;#a&quot;)" d="M105.762 99.998c.144.144.777.344.92.488.145.216.36.36.649.431 0 .05.03.097.068.144a31.825 31.825 0 0 0 1.504-2.248 67.653 67.653 0 0 0-2.509-1.554c-.216-.072-.431-.144-.575-.288-.217-.072-.217-.216-.433-.216-.503-.072-.864-.504-1.368-.648-.216 0-.288-.216-.504-.288-.143-.072-2.016-1.224-2.88-1.728-1.296-.793-2.232-1.803-2.016-3.315.096-.74.3-1.216.597-1.6l-.048.013c-1.745 1.399-2.783 5.44 3.23 8.966l-.034-.002c1.041.55 2.138 1.125 3.399 1.845z" transform="translate(370.894 -118.992)" stroke-width="0" stroke-miterlimit="2" opacity=".65"/><radialGradient id="b" cx="115.315" cy="105.631" r="40.338" gradientTransform="matrix(1 0 0 -1 0 201.281)" gradientUnits="userSpaceOnUse" transform="translate(370.894 -118.992)" fill="#FFF"><stop offset="0" style="stop-color:#000;stop-opacity:0"/><stop offset=".548" style="stop-color:#000;stop-opacity:0"/><stop offset=".862" style="stop-color:#000"/></radialGradient><path class="highlight" fill="url(&quot;#b&quot;)" d="M87.234 112.439c.009-.137.149-.304.149-.423.072-.288-.144 0-.216-.072 0-.073.216-.216.216-.288-.073-.072-.144.072-.144 0l-.144-.144c0-.072-.073-.216 0-.144.072.072.072.072.072 0 0-.144-.072-.072-.145-.144-.07-.072-.143-.145-.143-.216.072-.144.143-.217.072-.36v-.288c-.072-.144-.144-.144-.144-.36.072-.145 0-.289 0-.433.288-2.16 1.385-3.506 3.041-4.586 1.152-.648 2.16-.936 3.456-1.008 1.008 0 1.945.216 2.52.792.217.288.217.576.433.432s.779-1.107.635-1.683c-.144-.504-1.728-.863-2.736-.936-1.368-.072-2.736.144-4.177.72-.432.216-.575.289-.863.648-.145.073-.072.144-.217.216-.071 0-.216.072-.36.144a4.805 4.805 0 0 0-1.44 1.297c-.151.216-.307.434-.461.656-1.093 2.667-.335 5.195.596 6.18z" transform="translate(370.894 -118.992)" stroke-width="0" stroke-miterlimit="2" opacity=".65"/><radialGradient id="c" cx="83.446" cy="82.354" r="40.715" gradientTransform="matrix(1 0 0 -1 0 201.281)" gradientUnits="userSpaceOnUse" transform="translate(370.894 -118.992)" fill="#FFF"><stop offset="0" style="stop-color:#000;stop-opacity:0"/><stop offset=".393" style="stop-color:#000;stop-opacity:0"/><stop offset=".83" style="stop-color:#000"/></radialGradient><path class="highlight" fill="url(&quot;#c&quot;)" d="M109.853 103.302c.067.146.003.428.286.712.504 1.944.218 3.605-.43 5.261-1.296 3.312-6.12 6.192-11.376 6.336-3.386.113-5.792-.48-6.712-.708v3.893c2.341.7 5.033.848 6.207.848 3.342 0 7.244-.603 10.306-2.176 5.877-3.945 6.578-10.994 1.72-14.166z" transform="translate(370.894 -118.992)" stroke-width="0" stroke-miterlimit="2" opacity=".65"/><linearGradient id="d" gradientUnits="userSpaceOnUse" x1="132.326" y1="118.934" x2="100.275" y2="117.097" gradientTransform="matrix(1 0 0 -1 0 201.281)" fill="#FFF"><stop offset=".468" style="stop-color:#000"/><stop offset=".752" style="stop-color:#000;stop-opacity:0"/></linearGradient><path class="highlight" fill="url(&quot;#d&quot;)" d="M114.894 85.513c-.072-1.008-.793-3.744-2.089-4.824-.36-.288-.792-.577-1.223-.72-1.729-.72-4.825-.289-6.841.287-3.025.864-4.032 1.8-4.609 2.017-.215.144-.576.215-.72.36 0 .072-.36.288-.432.36a14.914 14.914 0 0 0-1.898 1.767c.264.289.52.585.771.889.753.913 1.588 1.746 2.358 2.64.177-.126.365-.255.57-.4 1.512-1.08 3.456-1.512 5.472-1.872.36-.072.72-.072 1.008-.144h.216c2.376-.288 4.536.072 6.049 1.08.36.216.792.576 1.008.504.431-.36.36-1.44.36-1.944z" transform="translate(370.894 -118.992)" stroke-width="0" stroke-miterlimit="2" opacity=".65"/></g><g aria-label="w" transform="matrix(4 0 0 4 -1536.415 461.362)"><path class="c1" d="M487.963-10.726c-.36 1.8-.504 3.888-.432 5.688.072 1.08.36 2.305.865 3.313.72 1.223 2.038 1.766 3.55 1.766 2.054 0 4.246-1.707 4.583-2.155.071-.144.216-.36.36-.432.144-.072.072-.217.216-.288.072-.145.216-.36.287-.504.145-.203.572-.449.822-.832.043-.064.286-.382.635-.843.072.733.2 1.236.275 1.488 0 .287.144.792.288 1.08.432 1.008.936 1.655 1.584 2.016.073 0 .864.288.937.144-.217.575 1.872.72 2.807.648 1.44-.073 3.659-1.433 4.884-3.233.07-.145.143-.145.215-.216.072-.145.072-.217.144-.288.937-1.009 2.585-3.744 3.306-5.689.625-1.635 3.469-8.148 1.62-12.439.34.003.672-.005.98-.02 3.374-.157 6.497-2.087 8.006-4.973.575-1.153 1.151-2.665 1.007-3.6-.144-.649-.36-1.153-.864-1.657-.864-.936-1.584-1.44-2.592-2.088-.504-.288-1.585-.936-1.944-.648-.216.216-.144.72-.072 1.296.36 1.8.576 4.393-.792 6.48-.576.865-1.08 1.44-2.16 2.017-1.296.647-1.729.36-1.945.576-.288 0-.504.216-.792.36-.083.055-.253.083-.466.093-.806-.572-1.628-.563-2.37-.47-.866.108-1.515 1.637-1.298 1.925 1.557.325 2.538 2.127 2.726 4.024.59 3.983-2.883 11.935-3.63 12.31-.143.07-.216.359-.288.503-.072.073-.216 0-.216.144s-.072.216-.144.288c-.432.864-1.687 2.574-2.992 2.586-.974.01-1.403-1.602-1.258-2.466.216-1.512.792-3.24 1.368-4.752.792-2.017 2.088-4.104 3.024-6.049.576-1.08.072-1.8-.72-2.376-.72-.432-2.808-2.088-3.6-1.512-.505.288-.793 1.152-1.081 1.584-1.082 1.936-2.104 3.954-2.85 6.003-1.28 2.566-4.81 8.912-7.18 8.988-.934.03-.684-1.786-.555-2.462.246-1.29.433-2.232 1.297-4.609.504-1.367.935-2.087 1.08-2.303v-.216c0-.144.144-.216.144-.36.215-.289.36-.792.576-1.08.072-.072.216-.145.216-.216.072-.073 0-.144 0-.217 1.44-1.943 2.592-3.168 3.096-3.672 1.224-1.152 1.656-1.368 1.728-1.8 0-.576-.575-1.368-1.44-2.016-.648-.504-1.008-.864-1.656-1.368-.576-.36-1.368-1.008-2.232-.864-1.584.432-4.033 5.04-4.609 6.336-.864 1.944-2.015 4.753-2.448 7.057zm11.593 7.56c-.071-.143-.288-.288-.144-.431.216-.073.144.216.144.431zm1.368 2.376c.433-.287.576.36 1.009.288-.145.217-1.08-.07-1.009-.288z" stroke-width="0" stroke-miterlimit="2" fill="#4198C2" stroke="#4198C2"/><linearGradient id="e" gradientUnits="userSpaceOnUse" x1="98.014" y1="102.872" x2="117.364" y2="87.456" fill="#FFF"><stop offset=".245" style="stop-color:#000"/><stop offset=".479" style="stop-color:#000;stop-opacity:.65317"/><stop offset=".906" style="stop-color:#000;stop-opacity:.02379"/><stop offset=".922" style="stop-color:#000;stop-opacity:0"/></linearGradient><path class="highlight" fill="url(&quot;#e&quot;)" d="M118.683 88.871c-.144-.648-.36-1.152-.864-1.656-.864-.936-1.584-1.44-2.592-2.088-.504-.288-1.585-.936-1.944-.648-.216.216-.144.72-.072 1.296.36 1.8.576 4.393-.792 6.48-.576.865-1.08 1.441-2.16 2.017-1.296.648-1.729.36-1.945.576-.288 0-.504.216-.792.36-.083.055-.253.083-.466.093.133.094.267.201.399.33.549.537.945 1.16 1.236 1.834.34.003.67-.005.979-.02 3.374-.157 6.497-2.087 8.006-4.973.575-1.153 1.151-2.665 1.007-3.6z" transform="translate(406.219 -118.967)" stroke-width="0" stroke-miterlimit="2" opacity=".65"/><linearGradient id="f" gradientUnits="userSpaceOnUse" x1="95.832" y1="104.845" x2="83.847" y2="115.866" fill="#FFF"><stop offset=".096" style="stop-color:#000"/><stop offset=".922" style="stop-color:#000;stop-opacity:0"/></linearGradient><path class="highlight" fill="url(&quot;#f&quot;)" d="M81.361 111.193c-.065.936-.083 1.87-.049 2.736.072 1.08.36 2.305.865 3.313.72 1.223 2.038 1.766 3.55 1.766 2.054 0 4.246-1.707 4.583-2.155.071-.144.216-.36.36-.432.144-.072.072-.217.216-.288.072-.145.216-.36.287-.504.145-.203.572-.449.822-.832.043-.064.286-.382.635-.843a12.197 12.197 0 0 1-.011-2.173c.126-1.583.538-3.169 1.109-4.738-1.026 2.056-3.497 6.533-5.657 8.272l-.002.014c-2.99 2.498-6.44 1.896-6.708-4.136z" transform="translate(406.219 -118.967)" stroke-width="0" stroke-miterlimit="2" opacity=".65"/><radialGradient id="g" cx="107.422" cy="91.98" r="37.414" gradientUnits="userSpaceOnUse" transform="translate(406.219 -118.967)" fill="#FFF"><stop offset="0" style="stop-color:#000;stop-opacity:0"/><stop offset=".602" style="stop-color:#000;stop-opacity:0"/><stop offset=".961" style="stop-color:#000"/></radialGradient><path class="highlight" fill="url(&quot;#g&quot;)" d="M94.129 99.096c0-.576-.575-1.368-1.44-2.016-.648-.504-1.008-.864-1.656-1.368-.576-.36-1.368-1.008-2.232-.864-1.584.432-4.033 5.04-4.609 6.336-.864 1.945-2.015 4.753-2.448 7.057a23.623 23.623 0 0 0-.383 2.952c.269 6.032 3.718 6.634 6.708 4.136l.002-.014c-.536.431-1.053.701-1.524.716-.934.03-.684-1.786-.555-2.462.246-1.29.433-2.231 1.297-4.608.504-1.368.936-2.088 1.08-2.304v-.216c0-.144.144-.216.144-.36.215-.288.36-.792.576-1.08.072-.072.216-.144.216-.216.072-.072 0-.144 0-.216 1.44-1.944 2.592-3.168 3.096-3.673 1.224-1.152 1.657-1.368 1.728-1.8z" transform="translate(406.219 -118.967)" stroke-width="0" stroke-miterlimit="2" opacity=".65"/><radialGradient id="h" cx="114.342" cy="97.543" r="31.747" gradientUnits="userSpaceOnUse" transform="translate(406.219 -118.967)" fill="#FFF"><stop offset="0" style="stop-color:#000;stop-opacity:0"/><stop offset=".527" style="stop-color:#000;stop-opacity:0"/><stop offset=".915" style="stop-color:#000"/></radialGradient><path class="highlight" fill="url(&quot;#h&quot;)" d="M100.64 115.663c-.526.524-1.154.943-1.796.948-.974.01-1.403-1.602-1.258-2.466.216-1.512.792-3.24 1.368-4.752.792-2.016 2.088-4.104 3.024-6.049.576-1.08.072-1.8-.72-2.376-.72-.432-2.808-2.088-3.6-1.512-.505.288-.793 1.153-1.081 1.584-1.805 3.23-3.458 6.687-3.88 10.136-.701 5.833 5.139 7.493 7.943 4.487z" transform="translate(406.219 -118.967)" stroke-width="0" stroke-miterlimit="2" opacity=".65"/></g><g aria-label="i" transform="matrix(4 0 0 4 -1536.415 461.362)"><path class="c1" d="M526.815-29.016c.144-1.295.576-2.736.144-4.104-.144-.792-.287-.936-.216-1.152.145-.36 1.225-.432 2.305-.072 1.727.648 3.024 1.584 3.384 3.24.215 1.296-.216 2.16-1.008 2.88-.865.865-3.025 1.945-4.393 1.44-.576-.431-.216-1.655-.216-2.232zM523.071.363c2.104 0 3.99-.37 6.747-2.614.267-.218.515-.458.767-.694.103-.096.179-.199.27-.302.115-.133.277-.242.412-.354.195-.157.414-.327.574-.522a.581.581 0 0 0 .146-.327.502.502 0 0 0 .213-.033c.175-.069.248-.25.336-.397.105-.176.26-.14.385-.288.252-.293 2.484-1.997 2.732-3.541.1-.619-.174-1.657-1.34-1.934-.27.72-1.79 2.541-4.011 4.588-2.113 1.947-4.409 3.352-5.285 3.352-1.799 0-.52-3.2.142-4.855.433-.936 1.872-3.96 2.16-5.04.072-.144-.072-.288.072-.432.144-.144.216-.432.36-.576.432-.864 2.161-4.465 2.52-5.329.721-1.8-.431-2.52-2.088-3.672-.792-.504-1.728-.936-2.448-1.224s-1.511-.216-1.656.072c-.072.144.072.36.145.792.287 2.016-3.746 10.225-4.538 12.601-.792 2.233-1.584 6.841-.143 9.217.72 1.08 2.088 1.512 3.528 1.512z" stroke-width="0" stroke-miterlimit="2" fill="#4198C2" stroke="#4198C2"/><radialGradient id="i" cx="111.993" cy="95.164" r="31.063" gradientUnits="userSpaceOnUse" transform="translate(427.207 -118.967)" fill="#FFF"><stop offset="0" style="stop-color:#000;stop-opacity:0"/><stop offset=".531" style="stop-color:#000;stop-opacity:0"/><stop offset="1" style="stop-color:#000"/></radialGradient><path class="highlight" fill="url(&quot;#i&quot;)" d="M99.942 115.342c-.929.578-1.706.922-2.137.922-1.8 0-.52-3.2.141-4.855.433-.936 1.873-3.96 2.16-5.04.073-.144-.072-.288.073-.432.143-.144.216-.432.36-.577.432-.863 2.16-4.464 2.52-5.328.72-1.8-.432-2.52-2.088-3.672-.792-.504-1.729-.936-2.448-1.224s-1.512-.216-1.657.072c-.072.144.073.36.145.792.287 2.016-3.745 10.225-4.537 12.601-.242.682-.476 1.596-.654 2.59-.372 6.43 3.923 7.33 8.122 4.15z" transform="translate(427.207 -118.967)" stroke-width="0" stroke-miterlimit="2" opacity=".65"/><linearGradient id="j" gradientUnits="userSpaceOnUse" x1="111.765" y1="100.129" x2="97.561" y2="113.66" fill="#FFF"><stop offset=".318" style="stop-color:#000"/><stop offset=".509" style="stop-color:#000;stop-opacity:.68377"/><stop offset=".922" style="stop-color:#000;stop-opacity:0"/></linearGradient><path class="highlight" fill="url(&quot;#j&quot;)" d="M107.101 108.323c-.272.722-1.79 2.542-4.012 4.589-1.072.988-2.19 1.834-3.147 2.43-4.2 3.179-8.494 2.279-8.122-4.151-.406 2.26-.49 4.977.51 6.627.72 1.08 2.088 1.512 3.529 1.512 2.104 0 3.989-.37 6.746-2.615.267-.217.515-.457.767-.693.103-.096.18-.199.27-.302.116-.133.278-.243.413-.354.195-.157.413-.327.574-.522a.581.581 0 0 0 .145-.327.502.502 0 0 0 .214-.033c.174-.069.247-.25.336-.397.104-.176.26-.14.385-.288.251-.293 2.484-1.997 2.731-3.542.1-.618-.173-1.656-1.339-1.934z" transform="translate(427.207 -118.967)" stroke-width="0" stroke-miterlimit="2" opacity=".65"/><linearGradient id="k" gradientUnits="userSpaceOnUse" x1="101.901" y1="101.488" x2="102.881" y2="71.978" fill="#FFF"><stop offset=".191" style="stop-color:#000"/><stop offset=".506" style="stop-color:#000;stop-opacity:0"/></linearGradient><path class="highlight" fill="url(&quot;#k&quot;)" d="M99.603 89.951c.143-1.296.576-2.736.143-4.104-.143-.792-.287-.936-.216-1.152.145-.36 1.225-.432 2.305-.072 1.728.648 3.025 1.584 3.384 3.24.216 1.296-.216 2.16-1.008 2.88-.864.865-3.024 1.945-4.392 1.44-.577-.431-.216-1.656-.216-2.232z" transform="translate(427.207 -118.967)" stroke-width="0" stroke-miterlimit="2" opacity=".65"/></g><g aria-label="s" transform="matrix(4 0 0 4 -1536.415 461.362)"><path class="c1" d="M543.826-15.206c-.062-.088-.12-.174-.184-.264-.595-.833-1.104-1.53-1.528-2.162.958-.48 2.25-1.475 2.667-1.93 1.189-1.294 1.452-2.617 1.59-3.564.187-1.268-1.673-2.71-2.032-2.853-1.08-.576-2.817-.599-3.537-.167-1.725 1.177-2.64 3.084-2.628 4.838.012 1.81.664 3.246 1.52 4.892.464.891 1.12 1.914 1.304 2.367l.074.19a55 55 0 0 0-.743.406l-.147.08v.001c-1.83 1.024-3.665 2.153-4.566 2.577-.36.145-.431.504-.648.504-.216 0-.432.145-.575.288-.36.36-.94.68-2.435 2.145-1.752 1.718-2.245 3.314-2.245 4.754 0 2.017 2.017 3.817 6.12 3.817 3.529 0 6.553-.72 8.858-2.664.143-.073.215-.288.359-.433.072-.071.217 0 .288-.071.072-.073.072-.217.145-.36.072-.073.215-.145.288-.216.071-.145.071-.217.143-.36.073-.073.216-.144.288-.217.216-.288 1.225-1.872 1.08-3.888-.11-1.725-.608-3.105-1.527-4.707-.01-.017-.245-.426-.634-1.048 3.362-1.857 7.356-4.123 7.706-4.254.072-.072.36-.072.432-.144 0-.144.072-.144.216-.144.217-.072.432-.216.648-.288h.504l.216-.216c.36-.216 2.232-.864 2.448-.936.288 0 .288.072.433-.216.071-.216.143-.216.36-.288 0 0 .144-.216.144-.288-.072-.576-1.86-.056-2.604.166-3.012.898-4.582 1.622-5.878 2.126a102.62 102.62 0 0 0-5.92 2.527zm-2.774-6.307c.351-1.153 1.207-2.522 2.342-2.617.432-.071.432.433.36.72-.156.47-.573 1.247-1.412 2.093-.311.314-.859.638-1.415.878-.016-.348.011-.7.125-1.074zm1.118 12.72c-.216 1.513-.985 2.909-2.16 4.249-1.508 1.719-2.68 2.175-4.767 2.318-1.8.145-2.564-.427-2.598-.943-.142-2.125 3.452-4.587 4.381-5.331 1.355-1.085 2.688-1.869 3.884-2.508.249-.117.59-.29.994-.5.305 1.079.372 1.87.266 2.716z" stroke-width="0" stroke-miterlimit="2" fill="#4198C2" stroke="#4198C2"/><linearGradient id="l" gradientUnits="userSpaceOnUse" x1="91.088" y1="102.677" x2="103.152" y2="94.6" fill="#FFF"><stop offset=".368" style="stop-color:#000"/><stop offset=".503" style="stop-color:#000;stop-opacity:.68377"/><stop offset=".794" style="stop-color:#000;stop-opacity:0"/></linearGradient><path class="highlight" fill="url(&quot;#l&quot;)" d="M96.957 98.538c.042.883.473 1.744 1.187 2.807.958-.48 2.25-1.475 2.667-1.93 1.188-1.294 1.451-2.617 1.59-3.563.187-1.269-1.673-2.71-2.033-2.854-.215.633-.512 2.282-.584 2.57-.157.47-.574 1.246-1.412 2.093-.312.314-.86.638-1.415.877z" transform="translate(443.97 -118.977)" stroke-width="0" stroke-miterlimit="2" opacity=".65"/><radialGradient id="m" cx="104.523" cy="115.83" r="26.938" gradientUnits="userSpaceOnUse" transform="translate(443.97 -118.977)" fill="#FFF"><stop offset="0" style="stop-color:#000;stop-opacity:0"/><stop offset=".633" style="stop-color:#000;stop-opacity:0"/><stop offset=".934" style="stop-color:#000"/></radialGradient><path class="highlight" fill="url(&quot;#m&quot;)" d="M96.54 104.014c.25-.14.498-.282.745-.414.595-.318 1.203-.603 1.799-.911-1.621-2.254-2.517-3.537-2.002-5.225.334-1.098 1.127-2.393 2.183-2.594.167-.032.29-.04.37-.002-1.102-1.363-4.703-.717-5.424 2.674-.001.042-.008.085-.008.127.013 1.81.664 3.247 1.52 4.893.253.485.558 1.002.817 1.452z" transform="translate(443.97 -118.977)" stroke-width="0" stroke-miterlimit="2" opacity=".65"/><radialGradient id="n" cx="110.977" cy="100.521" r="32.936" gradientUnits="userSpaceOnUse" transform="translate(443.97 -118.977)" fill="#FFF"><stop offset="0" style="stop-color:#000;stop-opacity:0"/><stop offset=".633" style="stop-color:#000;stop-opacity:0"/><stop offset=".942" style="stop-color:#000"/></radialGradient><path class="highlight" fill="url(&quot;#n&quot;)" d="M93.858 116.19c-.738.341-1.549.49-2.586.561-1.8.145-2.563-.427-2.597-.942-.142-2.126 3.452-4.587 4.38-5.332 1.744-1.396 3.45-2.294 4.874-3.025-.184-.646-.456-1.403-.828-2.334-2.1 1.126-4.408 2.572-5.455 3.065-.36.144-.432.504-.648.504-.216 0-.432.144-.576.288-.36.36-.94.679-2.435 2.145-1.149 1.127-1.75 2.2-2.032 3.212-.434 3.375 4.264 4.121 7.903 1.858z" transform="translate(443.97 -118.977)" stroke-width="0" stroke-miterlimit="2" opacity=".65"/><linearGradient id="o" gradientUnits="userSpaceOnUse" x1="95.485" y1="98.896" x2="103.077" y2="111.814" fill="#FFF"><stop offset=".069" style="stop-color:#000;stop-opacity:0"/><stop offset=".193" style="stop-color:#000;stop-opacity:.2915"/><stop offset=".388" style="stop-color:#000;stop-opacity:.75005"/><stop offset=".495" style="stop-color:#000"/><stop offset=".576" style="stop-color:#000;stop-opacity:.83916"/><stop offset=".7" style="stop-color:#000;stop-opacity:.59488"/><stop offset=".834" style="stop-color:#000;stop-opacity:.32822"/><stop offset="1" style="stop-color:#000;stop-opacity:0"/></linearGradient><path class="highlight" fill="url(&quot;#o&quot;)" d="M99.671 103.507c-1.793-2.515-2.89-3.883-2.673-5.508-.875-.39-1.818-.671-2.745-.945-.03.206-.051.411-.05.615.013 1.81.664 3.247 1.52 4.893.464.89 1.121 1.913 1.304 2.366l.075.192a64.37 64.37 0 0 1 2.754-1.348c-.062-.089-.12-.175-.185-.265z" transform="translate(443.97 -118.977)" stroke-width="0" stroke-miterlimit="2" opacity=".65"/><linearGradient id="p" gradientUnits="userSpaceOnUse" x1="93.388" y1="100.128" x2="100.862" y2="112.846" fill="#FFF"><stop offset=".069" style="stop-color:#000;stop-opacity:0"/><stop offset=".215" style="stop-color:#000;stop-opacity:.32045"/><stop offset=".338" style="stop-color:#000;stop-opacity:.59221"/><stop offset=".454" style="stop-color:#000;stop-opacity:.84531"/><stop offset=".524" style="stop-color:#000"/><stop offset=".668" style="stop-color:#000;stop-opacity:.67358"/><stop offset=".843" style="stop-color:#000;stop-opacity:.27812"/><stop offset=".966" style="stop-color:#000;stop-opacity:0"/></linearGradient><path class="highlight" fill="url(&quot;#p&quot;)" d="M98.2 110.185c-.167 1.171-.674 2.272-1.436 3.332.473.578.86 1.228 1.377 1.778.675.717 1.44 1.373 2.168 2.04.137-.104.28-.198.411-.309.144-.072.216-.288.36-.433.072-.07.216 0 .288-.07.072-.073.072-.218.144-.361.072-.073.216-.145.288-.216.072-.145.072-.217.144-.36.072-.073.216-.144.288-.216.216-.288 1.225-1.872 1.08-3.889-.11-1.725-.609-3.105-1.527-4.707-.01-.017-.246-.426-.635-1.048-1.228.678-2.367 1.3-3.217 1.743.305 1.08.372 1.87.267 2.716z" transform="translate(443.97 -118.977)" stroke-width="0" stroke-miterlimit="2" opacity=".65"/></g><g aria-label="e" transform="matrix(4 0 0 4 -1536.415 461.362)"><path class="c1" d="M551.69-13.751c-.935 2.376-1.584 4.968-1.368 7.56 0 4.177 2.809 6.625 6.265 6.625 1.151 0 3.28-.357 5.81-2.687.26-.226.516-.457.768-.693.103-.096.179-.199.27-.302.115-.133.277-.243.412-.354.195-.157.413-.327.574-.522a.581.581 0 0 0 .146-.327.502.502 0 0 0 .213-.033c.174-.069.248-.25.336-.397.105-.176.26-.14.385-.288.252-.293 2.484-1.997 2.732-3.542.1-.618-.174-1.656-1.34-1.934-.271.722-1.79 2.542-4.011 4.589-1.896 1.746-4.104 3.785-5.83 3.714-2.425-.1-2.601-2.227-2.408-4.013.059-.54.245-1.258.493-2.026a21.163 21.163 0 0 0 6.116-3.146c3.13-2.335 3.914-3.674 4.686-6.017.181-.551.225-1.608.225-2.184.072-.576 0-.936-.576-1.368-.36-.288-2.52-1.8-3.096-2.16-.72-.36-1.368-.936-2.233-.936-.936 0-1.872.792-2.448 1.368-2.664 2.376-4.896 5.689-6.12 9.073zm12.674-5.76c.216.215-.117.933-.262 1.293-.846 1.553-3.24 3.933-5.556 5.135-.626.325-1.203.5-1.739.647.176-.338.332-.606.451-.767 1.589-2.137 6.124-7.045 7.106-6.309z" stroke-width="0" stroke-miterlimit="2" fill="#4198C2" stroke="#4198C2"/><linearGradient id="q" gradientUnits="userSpaceOnUse" x1="91.22" y1="104.338" x2="109.111" y2="107.113" fill="#FFF"><stop offset=".196" style="stop-color:#000"/><stop offset=".615" style="stop-color:#000;stop-opacity:.22835"/><stop offset=".739" style="stop-color:#000;stop-opacity:0"/></linearGradient><path class="highlight" fill="url(&quot;#q&quot;)" d="M106.556 101.382c-.602-.22-1.188-.412-1.824-.465-.917 1.552-3.215 3.807-5.452 4.968-.626.325-1.203.5-1.739.647-.517.995-1.205 2.614-1.67 4.055a21.162 21.162 0 0 0 6.116-3.146c3.13-2.335 3.914-3.674 4.686-6.017v-.003c-.038-.013-.079-.025-.117-.04z" transform="translate(459.266 -118.968)" stroke-width="0" stroke-miterlimit="2" opacity=".65"/><radialGradient id="r" cx="111.769" cy="100.639" r="27.836" gradientUnits="userSpaceOnUse" transform="translate(459.266 -118.968)" fill="#FFF"><stop offset="0" style="stop-color:#000;stop-opacity:0"/><stop offset=".613" style="stop-color:#000;stop-opacity:0"/><stop offset=".946" style="stop-color:#000"/></radialGradient><path class="highlight" fill="url(&quot;#r&quot;)" d="M95.378 112.613c.206-1.899 1.956-5.962 2.614-6.848.536-.72 1.408-1.755 2.363-2.782-1.811-.721-3.852-1.364-5.674-2.263-.923 1.431-1.699 2.954-2.257 4.497-.71 1.806-1.254 3.737-1.38 5.697.143 7.664 5.952 7.683 9.78 4.4v-.006c-1.07.792-2.122 1.356-3.038 1.318-2.424-.1-2.601-2.227-2.408-4.013z" transform="translate(459.266 -118.968)" stroke-width="0" stroke-miterlimit="2" opacity=".65"/><linearGradient id="s" gradientUnits="userSpaceOnUse" x1="116.637" y1="99.152" x2="100.535" y2="116.234" fill="#FFF"><stop offset=".282" style="stop-color:#000"/><stop offset=".484" style="stop-color:#000;stop-opacity:.68377"/><stop offset=".922" style="stop-color:#000;stop-opacity:0"/></linearGradient><path class="highlight" fill="url(&quot;#s&quot;)" d="M107.628 108.323c-.272.722-1.791 2.542-4.012 4.589-1.896 1.746-4.104 3.785-5.83 3.714a2.951 2.951 0 0 1-.973-.206 60.524 60.524 0 0 1-1.286 2.744c.569.156 1.17.238 1.794.238 1.152 0 3.28-.357 5.81-2.687.26-.226.516-.457.768-.693.103-.097.179-.199.27-.302.115-.133.277-.243.412-.354.195-.157.413-.327.574-.522a.581.581 0 0 0 .146-.327.502.502 0 0 0 .213-.033c.174-.069.248-.25.336-.397.105-.176.26-.14.385-.288.252-.293 2.484-1.997 2.732-3.542.1-.618-.174-1.656-1.34-1.934z" transform="translate(459.266 -118.968)" stroke-width="0" stroke-miterlimit="2" opacity=".65"/></g></g><use xlink:href="#t" xmlns:xlink="http://www.w3.org/1999/xlink"/></svg>